<svg width="48" height="48" viewBox="0 0 48 48" fill="none" xmlns="http://www.w3.org/2000/svg">
<g opacity="0.4">
<path d="M1 48H3.93848V33H1V48Z" fill="url(#paint0_radial_1_3)"/>
<path d="M44.0537 33H3.93848V48H44.0537V33Z" fill="url(#paint1_linear_1_3)"/>
<path d="M47 48H44.0615V33H47V48Z" fill="url(#paint2_radial_1_3)"/>
</g>
<path d="M9.01073 8.5H38.5085C40.2304 8.5 41.0054 8.21345 41.5 9.5L44.5017 17.5V43.1739C44.5017 44.7272 44.6047 44.4899 42.8827 44.4899H5.11734C3.39535 44.4899 3.49827 44.7272 3.49827 43.1739V17.5L6.50001 9.5C6.98084 8.23944 7.28874 8.5 9.01073 8.5Z" fill="url(#paint3_linear_1_3)" stroke="url(#paint4_linear_1_3)" stroke-width="0.994201" stroke-linecap="round"/>
<path opacity="0.4" d="M22 8C23.3333 8 24.6667 8 26 8C26 12.6667 26 17.3333 26 22C25.6063 22 25.2125 22 24.8188 22C24.4157 22 24.0126 22 23.6094 22C23.2849 22 22.9604 22 22.6359 22C22.4239 22 22.212 22 22 22C22 17.3333 22 12.6667 22 8Z" fill="url(#paint5_linear_1_3)"/>
<path opacity="0.4" d="M3.50522 17.5H44.4948" stroke="url(#paint6_linear_1_3)" stroke-linecap="square"/>
<path opacity="0.6" d="M25.2618 20.5005C25.2122 20.5625 23.6852 20.6381 24.6735 20.5472C24.8696 20.5317 25.0657 20.5161 25.2618 20.5005ZM23.8074 20.6569C23.2674 20.9332 23.4209 20.9061 23.9304 20.9065C24.0867 20.9521 24.8808 20.942 24.6341 20.8536C23.7809 20.7246 25.5502 20.7886 24.5649 20.9472C23.6555 21.1745 24.7702 21.0793 25.0693 21.0156C25.7231 21.0663 25.7115 20.7606 26.4345 21.1169C26.9855 21.2507 27.5037 21.555 28.0232 21.7252C28.7113 21.399 29.0799 22.082 29.5938 22.3303C28.7307 21.5122 30.1787 22.5202 30.4373 22.768C31.4558 23.6272 32.3114 24.7389 32.6747 26.0367C32.3043 25.3467 32.521 26.4816 32.5906 26.6897C32.7191 26.9567 33.1046 28.6978 32.7791 27.5414C32.6075 27.1046 32.3126 25.8203 31.9904 25.8608C31.3568 25.7162 31.7008 26.6332 31.9904 26.5176C32.0564 26.8364 32.5136 28.2009 31.9553 27.366C32.3293 27.9777 32.0911 28.3412 32.315 28.9456C32.5675 29.0456 32.0035 29.9453 32.1899 30.4C32.0884 30.056 31.9287 29.6003 31.9941 30.2408C32.1066 30.5522 31.705 31.6862 31.9396 30.7675C31.9921 29.4551 31.7538 31.2607 31.4663 31.6167C31.2064 31.8728 31.3589 32.7087 31.0169 32.0734C30.7571 32.2641 30.5402 33.7358 30.6729 32.8241C30.019 33.4015 29.3106 34.1107 28.436 34.4456C27.1305 35.0418 25.5713 34.9056 24.2765 34.4662C24.9511 35.2927 26.1472 35.1794 27.0759 35.2325C25.5181 35.698 23.8609 34.8694 22.7405 33.8098C22.4364 33.5701 21.9365 32.7118 22.5523 33.3949C22.7781 33.7574 23.9451 34.7492 23.1036 33.8875C22.413 32.9706 23.7678 34.5269 24.2296 34.56C23.9823 33.8436 22.8748 33.4821 22.5142 32.7034C21.8738 31.8138 21.7531 30.6414 21.9473 29.5888C22.2416 29.0715 22.2993 28.4017 22.8104 28.0151C23.707 26.3577 26.2483 26.1235 27.4979 27.5097C28.2076 28.2515 26.8135 27.022 26.434 27.1281C24.6408 26.6738 22.6778 28.0433 22.4965 29.8907C22.4364 30.191 22.4289 30.7294 22.5875 30.4569C22.5284 32.6936 24.9447 34.7578 27.1395 34.0664C27.7106 34.0098 28.2478 33.6577 28.7005 33.2321C28.1466 33.9025 29.2654 33.0923 29.4892 32.825C30.2817 32.5889 29.8501 31.6778 30.5165 31.4322C30.6964 31.2072 31.0848 29.5896 30.6729 30.4626C30.9413 29.6575 30.8063 28.8062 30.8293 27.976C30.6489 27.2694 30.4735 26.3287 30.0136 25.6406C29.1104 24.1267 27.5888 22.9049 25.7858 22.7477C25.0822 22.5463 23.5372 22.8515 23.4281 22.8855C24.3947 22.5728 22.5806 22.844 22.4311 23.1279C22.0484 23.3611 21.019 23.7241 21.9776 23.5032C21.4536 23.7719 20.2287 23.9028 20.1216 24.4497C20.7749 24.3444 19.4946 24.7694 19.3154 24.9296C18.515 25.5498 17.7666 26.2713 17.2234 27.1315C17.6132 27.2109 17.0299 27.7613 16.9859 28.0471C16.6109 28.6367 16.5319 29.323 16.5039 30.009C16.4075 31.0288 16.1917 32.172 16.6695 33.1152C16.5625 33.4719 16.6589 33.7913 16.8637 34.0908C16.5335 34.5856 17.4645 35.1511 17.8646 35.4358C18.1768 35.8436 18.2626 36.419 17.7864 35.8737C18.1688 36.5587 18.1996 37.1635 18.6621 37.6096C18.248 37.6543 19.2547 38.7052 19.4285 38.9702C19.6287 38.7391 19.7756 40.0937 20.3981 39.8772C20.4694 40.3902 21.5777 40.4697 21.1487 40.8781C21.3827 40.8614 22.5213 41.8363 22.1892 41.2207C22.3189 41.2563 22.6957 41.7299 22.9287 41.9108C23.6011 42.4913 24.5722 42.3847 25.34 42.6766C22.9935 42.8214 20.7318 41.7417 19.0667 40.1421C16.6171 37.8915 15.1046 34.5627 15.2951 31.2147C15.2364 30.4017 15.404 29.5754 15.2372 28.7736C15.5527 27.8656 15.8374 26.5848 16.3788 25.9585C17.0062 25.3205 17.1395 24.3265 17.8294 23.7065C18.5559 22.9135 19.1027 22.5178 19.8126 22.1123C20.7226 21.5312 21.7249 21.1053 22.7283 20.7195C22.5383 21.0415 23.6987 20.5477 23.8074 20.6569ZM15.7064 25.2391C16.326 25.2427 15.217 26.3282 15.6976 25.4268L15.7064 25.2391ZM15.3154 26.9125C14.8366 27.8496 15.2753 27.9711 15.3154 26.9125ZM28.3739 29.3835C28.674 29.6132 28.2529 30.2839 28.2918 29.493L28.3739 29.3835ZM32.4245 30.4939C32.3202 31.2502 32.0897 32.0277 31.7207 32.6833C32.078 31.9974 32.2138 31.2242 32.4245 30.4939ZM28.1706 30.7441C28.2512 31.2784 27.367 32.1391 27.5764 31.2602C28.1035 30.5643 27.6324 31.2511 27.5607 31.5573C27.9468 31.4783 28.0276 31.0269 28.1706 30.7441ZM26.6693 32.1516C26.486 32.8605 25.0155 32.0651 26.0637 32.2141C26.2672 32.2174 26.4722 32.206 26.6693 32.1516ZM22.0245 32.1985C22.2471 32.4745 22.6535 33.4611 22.1833 32.6198C22.1149 32.487 22.0308 32.352 22.0245 32.1985ZM21.7274 32.7146C21.9691 33.0841 22.2417 33.5493 22.4311 33.9188C22.1806 33.5788 21.5588 33.1881 21.7274 32.7146Z" fill="#340000" stroke="#3D0000" stroke-width="0.386301"/>
<defs>
<radialGradient id="paint0_radial_1_3" cx="0" cy="0" r="1" gradientUnits="userSpaceOnUse" gradientTransform="translate(3.93847 40.5) rotate(180) scale(2.94733 7.5)">
<stop/>
<stop offset="1" stop-opacity="0"/>
</radialGradient>
<linearGradient id="paint1_linear_1_3" x1="13.6258" y1="48.0004" x2="13.6258" y2="32.9996" gradientUnits="userSpaceOnUse">
<stop stop-opacity="0"/>
<stop offset="0.5"/>
<stop offset="1" stop-opacity="0"/>
</linearGradient>
<radialGradient id="paint2_radial_1_3" cx="0" cy="0" r="1" gradientUnits="userSpaceOnUse" gradientTransform="translate(44.0615 40.5) scale(2.94732 7.5)">
<stop/>
<stop offset="1" stop-opacity="0"/>
</radialGradient>
<linearGradient id="paint3_linear_1_3" x1="25.7583" y1="8.65642" x2="26.0876" y2="42.7578" gradientUnits="userSpaceOnUse">
<stop stop-color="#DAC197"/>
<stop offset="0.23942" stop-color="#C1A581"/>
<stop offset="0.275825" stop-color="#DBC298"/>
<stop offset="1" stop-color="#A68B60"/>
</linearGradient>
<linearGradient id="paint4_linear_1_3" x1="15.4643" y1="7.97569" x2="15.4643" y2="45.0425" gradientUnits="userSpaceOnUse">
<stop stop-color="#C9AF8B"/>
<stop offset="0.23942" stop-color="#AD8757"/>
<stop offset="0.275825" stop-color="#C2A57F"/>
<stop offset="1" stop-color="#9D7D53"/>
</linearGradient>
<linearGradient id="paint5_linear_1_3" x1="26" y1="22" x2="26" y2="8" gradientUnits="userSpaceOnUse">
<stop stop-color="white"/>
<stop offset="0.30213" stop-color="white"/>
<stop offset="0.343611" stop-color="white" stop-opacity="0.690196"/>
<stop offset="1" stop-color="white" stop-opacity="0"/>
</linearGradient>
<linearGradient id="paint6_linear_1_3" x1="-nan" y1="-nan" x2="-nan" y2="-nan" gradientUnits="userSpaceOnUse">
<stop stop-color="white" stop-opacity="0"/>
<stop offset="0.245" stop-color="white"/>
<stop offset="0.7735" stop-color="white"/>
<stop offset="1" stop-color="white" stop-opacity="0"/>
</linearGradient>
</defs>
</svg>
